<svg width="16" height="16" viewBox="0 0 16 16" fill="none" xmlns="http://www.w3.org/2000/svg">
<rect width="16" height="16" fill="#0B1C28"/>
<path d="M7.94824 2.52696L9.75667 2.99899L12.0003 2.04267L10.2103 1.55225L7.94824 2.52696Z" fill="#D98648"/>
<path d="M9.75667 2.99899V12.7645L12.0003 11.8082V2.04267L9.75667 2.99899Z" fill="#FF9D55"/>
<path d="M9.75667 2.99899L7.94824 2.52696V12.2741L9.75667 12.7645V2.99899Z" fill="#EB914E"/>
<path d="M7.94824 2.52696L9.75667 2.99899M7.94824 2.52696L10.2103 1.55225L12.0003 2.04267M7.94824 2.52696V12.2741L9.75667 12.7645M9.75667 2.99899V12.7645M9.75667 2.99899L12.0003 2.04267M9.75667 12.7645L12.0003 11.8082V2.04267" stroke="#0B1C28" stroke-width="0.1"/>
<path d="M8.05246 7.8637L9.75668 7.12471V8.88133L8.05246 9.61695V7.8637Z" fill="#FF9D55"/>
<path d="M8.05246 7.8637L9.75668 7.12471L7.95438 6.6499L6.26855 7.3978L8.05246 7.8637Z" fill="#D98648"/>
<path d="M8.05246 9.61695V7.8637L6.26855 7.3978V9.15105L8.05246 9.61695Z" fill="#FF9D55"/>
<path d="M8.05246 7.8637L9.75668 7.12471M8.05246 7.8637V9.61695M8.05246 7.8637L6.26855 7.3978M9.75668 7.12471V8.88133L8.05246 9.61695M9.75668 7.12471L7.95438 6.6499L6.26855 7.3978M8.05246 9.61695L6.26855 9.15105V7.3978" stroke="#0B1C28" stroke-width="0.1"/>
<path d="M4 4.20958L5.80843 4.68161L8.05211 3.72528L6.26207 3.23486L4 4.20958Z" fill="#D98648"/>
<path d="M5.80843 4.68161V14.4471L8.05211 13.4908V3.72528L5.80843 4.68161Z" fill="#FF9D55"/>
<path d="M5.80843 4.68161L4 4.20958V13.9567L5.80843 14.4471V4.68161Z" fill="#EB914E"/>
<path d="M4 4.20958L5.80843 4.68161M4 4.20958L6.26207 3.23486L8.05211 3.72528M4 4.20958V13.9567L5.80843 14.4471M5.80843 4.68161V14.4471M5.80843 4.68161L8.05211 3.72528M5.80843 14.4471L8.05211 13.4908V3.72528" stroke="#0B1C28" stroke-width="0.1"/>
</svg>
