<svg width="1222" height="1222" viewBox="0 0 1222 1222" fill="none" xmlns="http://www.w3.org/2000/svg">
<rect width="1222" height="1222" fill="#161D23"/>
<path d="M606.75 164.625L754.25 203.125L937.25 125.125L791.25 85.125L606.75 164.625Z" fill="#DBD5D0"/>
<path d="M754.25 203.125V999.625L937.25 921.625V125.125L754.25 203.125Z" fill="#FFEDE0"/>
<path d="M754.25 203.125L606.75 164.625V959.625L754.25 999.625V203.125Z" fill="#F1E7DF"/>
<path d="M606.75 164.625L754.25 203.125M606.75 164.625L791.25 85.125L937.25 125.125M606.75 164.625V959.625L754.25 999.625M754.25 203.125V999.625M754.25 203.125L937.25 125.125M754.25 999.625L937.25 921.625V125.125" stroke="#161D23" stroke-width="3"/>
<path d="M615.25 599.875L754.25 539.601V682.876L615.25 742.875V599.875Z" fill="#FFEDE0"/>
<path d="M615.25 599.875L754.25 539.601L607.25 500.875L469.75 561.875L615.25 599.875Z" fill="#DBD5D0"/>
<path d="M615.25 742.875V599.875L469.75 561.875V704.875L615.25 742.875Z" fill="#FFEDE0"/>
<path d="M615.25 599.875L754.25 539.601M615.25 599.875V742.875M615.25 599.875L469.75 561.875M754.25 539.601V682.876L615.25 742.875M754.25 539.601L607.25 500.875L469.75 561.875M615.25 742.875L469.75 704.875V561.875" stroke="#161D23" stroke-width="3"/>
<path d="M284.75 301.875L432.25 340.375L615.25 262.375L469.25 222.375L284.75 301.875Z" fill="#DBD5D0"/>
<path d="M432.25 340.375V1136.88L615.25 1058.88V262.375L432.25 340.375Z" fill="#FFEDE0"/>
<path d="M432.25 340.375L284.75 301.875V1096.88L432.25 1136.88V340.375Z" fill="#F1E7DF"/>
<path d="M284.75 301.875L432.25 340.375M284.75 301.875L469.25 222.375L615.25 262.375M284.75 301.875V1096.88L432.25 1136.88M432.25 340.375V1136.88M432.25 340.375L615.25 262.375M432.25 1136.88L615.25 1058.88V262.375" stroke="#161D23" stroke-width="3"/>
</svg>
