<svg width="1920" height="1920" viewBox="0 0 1920 1920" fill="none" xmlns="http://www.w3.org/2000/svg">
<rect width="1920" height="1920" fill="#161D23"/>
<path d="M955.75 513.625L1103.25 552.125L1286.25 474.125L1140.25 434.125L955.75 513.625Z" fill="#DBD5D0"/>
<path d="M1103.25 552.125V1348.62L1286.25 1270.62V474.125L1103.25 552.125Z" fill="#FFEDE0"/>
<path d="M1103.25 552.125L955.75 513.625V1308.62L1103.25 1348.62V552.125Z" fill="#F1E7DF"/>
<path d="M955.75 513.625L1103.25 552.125M955.75 513.625L1140.25 434.125L1286.25 474.125M955.75 513.625V1308.62L1103.25 1348.62M1103.25 552.125V1348.62M1103.25 552.125L1286.25 474.125M1103.25 1348.62L1286.25 1270.62V474.125" stroke="#161D23"/>
<path d="M964.25 948.875L1103.25 888.601V1031.88L964.25 1091.88V948.875Z" fill="#FFEDE0"/>
<path d="M964.25 948.875L1103.25 888.601L956.25 849.875L818.75 910.875L964.25 948.875Z" fill="#DBD5D0"/>
<path d="M964.25 1091.88V948.875L818.75 910.875V1053.88L964.25 1091.88Z" fill="#FFEDE0"/>
<path d="M964.25 948.875L1103.25 888.601M964.25 948.875V1091.88M964.25 948.875L818.75 910.875M1103.25 888.601V1031.88L964.25 1091.88M1103.25 888.601L956.25 849.875L818.75 910.875M964.25 1091.88L818.75 1053.88V910.875" stroke="#161D23"/>
<path d="M633.75 650.875L781.25 689.375L964.25 611.375L818.25 571.375L633.75 650.875Z" fill="#DBD5D0"/>
<path d="M781.25 689.375V1485.88L964.25 1407.88V611.375L781.25 689.375Z" fill="#FFEDE0"/>
<path d="M781.25 689.375L633.75 650.875V1445.88L781.25 1485.88V689.375Z" fill="#F1E7DF"/>
<path d="M633.75 650.875L781.25 689.375M633.75 650.875L818.25 571.375L964.25 611.375M633.75 650.875V1445.88L781.25 1485.88M781.25 689.375V1485.88M781.25 689.375L964.25 611.375M781.25 1485.88L964.25 1407.88V611.375" stroke="#161D23"/>
</svg>
